<svg width="200" height="162.9687261350466" viewBox="0 0 200 162.9687261350466" class="css-1j8o68f"><defs id="SvgjsDefs1001"></defs><g id="SvgjsG1007" featurekey="symbolFeature-0" transform="matrix(0.8235159516334534,0,0,0.8235159516334534,58.88178723125757,-5.1552092673189565)" fill="#a5e9e1"><title xmlns="http://www.w3.org/2000/svg">ALL</title><path xmlns="http://www.w3.org/2000/svg" d="M18.85,93.69a12.27,12.27,0,0,1-4.85-1c-9.46-4-11.85-19.77-5.31-35.07s19.54-24.46,29-20.43a12.62,12.62,0,0,1,5.39,4.48,52.11,52.11,0,0,0,6.92.36,43.74,43.74,0,0,0,7-.42,12.62,12.62,0,0,1,5.35-4.42c9.46-4,22.47,5.13,29,20.43h0c6.53,15.3,4.15,31-5.31,35.07-7.64,3.26-17.89-2.08-25-13A37.07,37.07,0,0,0,50,78.4a30.78,30.78,0,0,0-11.36,1.92C32.9,88.8,25.46,93.69,18.85,93.69ZM50,76.44A38.13,38.13,0,0,1,61.91,78a1,1,0,0,1,.52.4c6.62,10.29,16,15.45,22.81,12.54,8.47-3.62,10.39-18.2,4.28-32.5h0c-6.11-14.31-18-23-26.43-19.39a10.81,10.81,0,0,0-4.73,4.06,1,1,0,0,1-.64.42A43.26,43.26,0,0,1,50,44a51.55,51.55,0,0,1-7.64-.45,1,1,0,0,1-.67-.43A10.82,10.82,0,0,0,36.92,39C28.45,35.4,16.59,44.1,10.49,58.41S6.3,87.3,14.77,90.91C21.39,93.74,30.61,88.83,37.18,79a1,1,0,0,1,.44-.36A32.39,32.39,0,0,1,50,76.44Z"></path><path xmlns="http://www.w3.org/2000/svg" d="M31.5,71.43H25.8a1,1,0,0,1-1-1V65.74H20.11a1,1,0,0,1-1-1V59.06a1,1,0,0,1,1-1h4.71V53.37a1,1,0,0,1,1-1H31.5a1,1,0,0,1,1,1v4.71h4.72a1,1,0,0,1,1,1v5.69a1,1,0,0,1-1,1H32.47v4.71A1,1,0,0,1,31.5,71.43Zm-4.71-2h3.73V64.76a1,1,0,0,1,1-1h4.72V60H31.5a1,1,0,0,1-1-1V54.35H26.78v4.71a1,1,0,0,1-1,1H21.09v3.74H25.8a1,1,0,0,1,1,1Z"></path><path xmlns="http://www.w3.org/2000/svg" d="M72.25,60.64a4.35,4.35,0,1,1,4.35-4.35A4.35,4.35,0,0,1,72.25,60.64Zm0-6.74a2.39,2.39,0,1,0,2.39,2.39A2.39,2.39,0,0,0,72.25,53.9Z"></path><path xmlns="http://www.w3.org/2000/svg" d="M72.25,75a4.35,4.35,0,1,1,4.35-4.35A4.36,4.36,0,0,1,72.25,75Zm0-6.74a2.39,2.39,0,1,0,2.39,2.39A2.39,2.39,0,0,0,72.25,68.28Z"></path><path xmlns="http://www.w3.org/2000/svg" d="M65.06,67.84a4.35,4.35,0,1,1,4.35-4.35A4.36,4.36,0,0,1,65.06,67.84Zm0-6.74a2.39,2.39,0,1,0,2.39,2.39A2.39,2.39,0,0,0,65.06,61.09Z"></path><path xmlns="http://www.w3.org/2000/svg" d="M79.44,67.84a4.35,4.35,0,1,1,4.35-4.35A4.36,4.36,0,0,1,79.44,67.84Zm0-6.74a2.39,2.39,0,1,0,2.39,2.39A2.39,2.39,0,0,0,79.44,61.09Z"></path><path xmlns="http://www.w3.org/2000/svg" d="M50,44a1,1,0,0,1-1-1c0-14.38,7.35-23.68,18.73-23.68h3.6c4,0,13.41-1.17,13.41-12.06a1,1,0,0,1,2,0c0,8.78-5.74,14-15.36,14h-3.6C57.56,21.31,51,29.84,51,43A1,1,0,0,1,50,44Z"></path></g><g id="SvgjsG1008" featurekey="nameFeature-0" transform="matrix(1.3454219102859497,0,0,1.3454219102859497,-1.734249555074207,77.36365305786016)" fill="#ffffff"><path d="M15.762 40.39063 c-8.4375 0 -14.473 -5.8789 -14.473 -14.668 c0 -8.9648 6.2305 -14.844 14.902 -14.844 c5.7617 0 10.41 2.5586 12.93 6.7969 l-6.5234 3.4766 c-1.2695 -2.6367 -3.5547 -3.9063 -6.4063 -3.9063 c-4.3164 0 -7.4805 2.9883 -7.4805 8.2813 c0 4.9609 2.8125 8.5156 7.7734 8.5156 c2.7539 0 5.8008 -1.1133 6.7188 -4.3555 l-6.6797 0 l0 -5.8789 l13.633 0 l0 16.191 l-5.7617 0 l0 -3.0859 c-1.7969 2.1289 -4.5508 3.4766 -8.6328 3.4766 z M55.17609375 40 l-1.8555 -5.3125 l-11.484 0 l-1.8359 5.3125 l-7.5586 0 l10.566 -28.711 l9.1602 0 l10.566 28.711 l-7.5586 0 z M43.96509375 28.555 l7.2266 0 l-3.6133 -10.391 z M100.6446875 40 l-7.4414 0 l-1.875 -20.234 l-6.0742 20.234 l-4.9219 0 l-6.0742 -20.332 l-1.8945 20.332 l-7.4805 0 l2.5195 -28.711 l10.879 0 l4.4922 14.668 l4.5508 -14.668 l10.84 0 z M123.2621875 17.754 l-10 0 l0 4.6875 l8.9063 0 l0 6.4063 l-8.9063 0 l0 4.6289 l10 0 l0 6.5234 l-17.441 0 l0 -28.711 l17.441 0 l0 6.4648 z M138.8280625 40.39063 c-6.2891 0 -11.406 -3.0273 -12.207 -8.7891 l7.7148 -1.7578 c0.21484 3.125 2.168 4.5898 4.8047 4.5898 c1.9141 0 3.0859 -0.91797 3.0859 -2.5586 c0 -2.1484 -2.7539 -2.9492 -5.957 -4.043 c-4.043 -1.3477 -8.5742 -3.0273 -8.5742 -8.3203 c0 -5.3516 4.3359 -8.6328 10.527 -8.6328 c5.0391 0 10.527 1.9922 11.719 7.9297 l-7.1484 1.7578 c-0.41016 -2.5977 -1.7773 -3.7305 -4.082 -3.7305 c-2.0508 0 -3.4961 0.80078 -3.4961 2.4805 c0 1.6016 2.5781 2.2461 5.5273 3.2031 c4.1211 1.3672 9.1992 3.2422 9.1992 8.9258 c0 6.3086 -5.3125 8.9453 -11.113 8.9453 z"></path></g><g id="SvgjsG1009" featurekey="sloganFeature-0" transform="matrix(1.1071131229400635,0,0,1.1071131229400635,19.11430951711509,140.69360810168612)" fill="#a5e9e1"><path d="M1.56 20 l-0.76 0 l1.52 -18.68 l1.3 0 l1.52 18.68 l-0.76 0 l-0.42 -5.2 c-0.18 0.26 -0.44 0.6 -0.76 1.08 c-0.76 1.1 -1.46 1.9 -1.58 3.5 z M1.84 16.56 c0.26 -0.42 0.6 -0.9 1 -1.46 c1 -1.44 0.92 -1.34 0.92 -2.58 c0 -0.14 -0.7 -8.8 -0.76 -9.7 l-0.04 0 z M15.899999999999999 14.6 l0 3.44 c0 1.22 -0.5 2.08 -2.04 2.08 l-0.28 0 c-1.5 0 -2.02 -0.86 -2.02 -2.08 l0 -4.88 l0.76 0 l0 4.56 c0 0.88 0.2 1.64 1.42 1.64 c1.2 0 1.4 -0.76 1.4 -1.64 l0 -3.32 c0 -1.3 -0.88 -2.4 -1.64 -3.5 c-1.28 -1.86 -1.94 -2.58 -1.94 -4.52 l0 -3.12 c0 -1.22 0.5 -2.08 2.02 -2.08 l0.28 0 c1.52 0 2.04 0.86 2.04 2.08 l0 4.92 l-0.76 0 l0 -4.6 c0 -0.88 -0.22 -1.64 -1.42 -1.64 s-1.4 0.76 -1.4 1.64 l0 3 c-0.02 1.26 0.54 2.1 1.54 3.54 c1.36 1.96 2.04 2.68 2.04 4.48 z M25.36 20 l-0.76 0 l0 -17.16 l-0.1 0 l-2.66 17.16 l-0.82 0 l-2.66 -17.16 l-0.1 0 l0 17.16 l-0.76 0 l0 -18.68 l1.4 0 l2.52 16.4 l2.54 -16.4 l1.4 0 l0 18.68 z M27.52 20 l-0.76 0 l1.52 -18.68 l1.3 0 l1.52 18.68 l-0.76 0 l-0.42 -5.2 c-0.18 0.26 -0.44 0.6 -0.76 1.08 c-0.76 1.1 -1.46 1.9 -1.58 3.5 z M27.8 16.56 c0.26 -0.42 0.6 -0.9 1 -1.46 c1 -1.44 0.92 -1.34 0.92 -2.58 c0 -0.14 -0.7 -8.8 -0.76 -9.7 l-0.04 0 z M33.38 19.24 l0 -17.92 l-0.76 0 l0 18.68 l2.68 0 l0 -0.76 l-1.92 0 z M37.56 19.24 l0 -17.92 l-0.76 0 l0 18.68 l2.68 0 l0 -0.76 l-1.92 0 z M49.46 13.1 l0.74 0 l0 4.94 c0 1.22 -0.48 2.08 -2.02 2.08 l-0.28 0 c-1.5 0 -2.02 -0.86 -2.02 -2.28 l0 -14.78 c0 -1.02 0.5 -1.88 2.02 -1.88 l0.28 0 c1.52 0 2.02 0.86 2.02 2.08 l0 4.92 l-0.74 0 l0 -4.6 c0 -0.88 -0.22 -1.64 -1.42 -1.64 s-1.4 0.74 -1.4 1.64 l0 14.14 c0 0.88 0.2 1.64 1.4 1.64 c1.22 0 1.42 -0.76 1.42 -1.64 l0 -4.62 z M56.14 3.2600000000000016 l0 14.78 c0 1.22 -0.5 2.08 -2.04 2.08 l-0.28 0 c-1.5 0 -2.02 -0.86 -2.02 -2.28 l0 -14.78 c0 -1.02 0.5 -1.88 2.04 -1.88 l0.26 0 c1.52 0 2.04 0.86 2.04 2.08 z M55.38 17.72 l0 -14.14 c0 -0.88 -0.2 -1.64 -1.42 -1.64 c-1.2 0 -1.4 0.76 -1.4 1.64 l0 14.14 c0 0.88 0.2 1.64 1.42 1.64 c1.2 0 1.4 -0.76 1.4 -1.64 z M58.5 19.24 l0 -17.92 l-0.76 0 l0 18.68 l2.68 0 l0 -0.76 l-1.92 0 z M62.68 19.24 l0 -17.92 l-0.76 0 l0 18.68 l2.68 0 l0 -0.76 l-1.92 0 z M68.75999999999999 11.04 l-1.92 0 l0 8.2 l1.92 0 l0 0.76 l-2.66 0 l0 -18.68 l2.66 0 l0 0.76 l-1.92 0 l0 8.2 l1.92 0 l0 0.76 z M73.8 13.1 l0.74 0 l0 4.94 c0 1.22 -0.48 2.08 -2.02 2.08 l-0.28 0 c-1.5 0 -2.02 -0.86 -2.02 -2.28 l0 -14.78 c0 -1.02 0.5 -1.88 2.02 -1.88 l0.28 0 c1.52 0 2.02 0.86 2.02 2.08 l0 4.92 l-0.74 0 l0 -4.6 c0 -0.88 -0.22 -1.64 -1.42 -1.64 s-1.4 0.74 -1.4 1.64 l0 14.14 c0 0.88 0.2 1.64 1.4 1.64 c1.22 0 1.42 -0.76 1.42 -1.64 l0 -4.62 z M80.02 1.3200000000000003 l0 0.76 l-1.92 0 l0 17.92 l-0.76 0 l0 -17.92 l-1.9 0 l0 -0.76 l4.58 0 z M82.36 20 l-0.74 0 l0 -18.68 l0.74 0 l0 18.68 z M88.3 3.2600000000000016 l0 14.78 c0 1.22 -0.5 2.08 -2.04 2.08 l-0.28 0 c-1.5 0 -2.02 -0.86 -2.02 -2.28 l0 -14.78 c0 -1.02 0.5 -1.88 2.04 -1.88 l0.26 0 c1.52 0 2.04 0.86 2.04 2.08 z M87.53999999999999 17.72 l0 -14.14 c0 -0.88 -0.2 -1.64 -1.42 -1.64 c-1.2 0 -1.4 0.76 -1.4 1.64 l0 14.14 c0 0.88 0.2 1.64 1.42 1.64 c1.2 0 1.4 -0.76 1.4 -1.64 z M93.47999999999999 1.3200000000000003 l0.76 0 l0 18.68 l-0.82 0 l-2.76 -15.3 l0 15.3 l-0.76 0 l0 -18.68 l0.82 0 l2.76 15.3 l0 -15.3 z M104.97999999999999 3.2600000000000016 l0 14.78 c0 1.22 -0.5 2.08 -2.04 2.08 l-0.28 0 c-1.5 0 -2.02 -0.86 -2.02 -2.28 l0 -14.78 c0 -1.02 0.5 -1.88 2.04 -1.88 l0.26 0 c1.52 0 2.04 0.86 2.04 2.08 z M104.21999999999998 17.72 l0 -14.14 c0 -0.88 -0.2 -1.64 -1.42 -1.64 c-1.2 0 -1.4 0.76 -1.4 1.64 l0 14.14 c0 0.88 0.2 1.64 1.42 1.64 c1.2 0 1.4 -0.76 1.4 -1.64 z M109.24 11.04 l-1.92 0 l0 8.96 l-0.76 0 l0 -18.68 l2.68 0 l0 0.76 l-1.92 0 l0 8.2 l1.92 0 l0 0.76 z M117.77999999999999 13.120000000000001 l2.16 0 l0 4.92 c0 1.22 -0.5 2.08 -2.02 2.08 l-0.28 0 c-1.52 0 -2.04 -0.86 -2.04 -2.28 l0 -14.78 c0 -1.02 0.5 -1.88 2.04 -1.88 l0.28 0 c1.5 0 2.02 0.86 2.02 2.08 l0 4.92 l-0.76 0 l0 -4.6 c0 -0.88 -0.2 -1.64 -1.42 -1.64 c-1.2 0 -1.4 0.76 -1.4 1.64 l0 14.14 c0 0.88 0.22 1.64 1.42 1.64 s1.4 -0.76 1.4 -1.64 l0 -3.86 l-1.4 0 l0 -0.74 z M122.29999999999998 20 l-0.76 0 l1.52 -18.68 l1.3 0 l1.52 18.68 l-0.76 0 l-0.42 -5.2 c-0.18 0.26 -0.44 0.6 -0.76 1.08 c-0.76 1.1 -1.46 1.9 -1.58 3.5 z M122.57999999999998 16.56 c0.26 -0.42 0.6 -0.9 1 -1.46 c1 -1.44 0.92 -1.34 0.92 -2.58 c0 -0.14 -0.7 -8.8 -0.76 -9.7 l-0.04 0 z M135.35999999999999 20 l-0.76 0 l0 -17.16 l-0.1 0 l-2.66 17.16 l-0.82 0 l-2.66 -17.16 l-0.1 0 l0 17.16 l-0.76 0 l0 -18.68 l1.4 0 l2.52 16.4 l2.54 -16.4 l1.4 0 l0 18.68 z M139.61999999999998 11.04 l-1.92 0 l0 8.2 l1.92 0 l0 0.76 l-2.66 0 l0 -18.68 l2.66 0 l0 0.76 l-1.92 0 l0 8.2 l1.92 0 l0 0.76 z M145.31999999999996 14.6 l0 3.44 c0 1.22 -0.5 2.08 -2.04 2.08 l-0.28 0 c-1.5 0 -2.02 -0.86 -2.02 -2.08 l0 -4.88 l0.76 0 l0 4.56 c0 0.88 0.2 1.64 1.42 1.64 c1.2 0 1.4 -0.76 1.4 -1.64 l0 -3.32 c0 -1.3 -0.88 -2.4 -1.64 -3.5 c-1.28 -1.86 -1.94 -2.58 -1.94 -4.52 l0 -3.12 c0 -1.22 0.5 -2.08 2.02 -2.08 l0.28 0 c1.52 0 2.04 0.86 2.04 2.08 l0 4.92 l-0.76 0 l0 -4.6 c0 -0.88 -0.22 -1.64 -1.42 -1.64 s-1.4 0.76 -1.4 1.64 l0 3 c-0.02 1.26 0.54 2.1 1.54 3.54 c1.36 1.96 2.04 2.68 2.04 4.48 z"></path></g></svg>
