<?xml version="1.0" encoding="UTF-8" standalone="no"?>
<!-- Created with Inkscape (http://www.inkscape.org/) -->

<svg
   xmlns:dc="http://purl.org/dc/elements/1.1/"
   xmlns:cc="http://creativecommons.org/ns#"
   xmlns:rdf="http://www.w3.org/1999/02/22-rdf-syntax-ns#"
   xmlns:svg="http://www.w3.org/2000/svg"
   xmlns="http://www.w3.org/2000/svg"
   xmlns:xlink="http://www.w3.org/1999/xlink"
   xmlns:sodipodi="http://sodipodi.sourceforge.net/DTD/sodipodi-0.dtd"
   xmlns:inkscape="http://www.inkscape.org/namespaces/inkscape"
   width="56"
   height="56"
   viewBox="0 0 14.816667 14.816667"
   version="1.1"
   id="svg8"
   sodipodi:docname="only_icon_colors.svg"
   inkscape:version="0.92.3 (2405546, 2018-03-11)">
  <defs
     id="defs2">
    <linearGradient
       inkscape:collect="always"
       id="linearGradient872">
      <stop
         style="stop-color:#4d4d4d;stop-opacity:1"
         offset="0"
         id="stop868" />
      <stop
         style="stop-color:#333333;stop-opacity:1"
         offset="1"
         id="stop870" />
    </linearGradient>
    <linearGradient
       inkscape:collect="always"
       id="linearGradient844">
      <stop
         style="stop-color:#ffffff;stop-opacity:1"
         offset="0"
         id="stop840" />
      <stop
         style="stop-color:#b3b3b3;stop-opacity:1"
         offset="1"
         id="stop842" />
    </linearGradient>
    <radialGradient
       inkscape:collect="always"
       xlink:href="#linearGradient844"
       id="radialGradient850"
       cx="50.083115"
       cy="62.516811"
       fx="50.083115"
       fy="62.516811"
       r="45.017044"
       gradientTransform="matrix(1.8291212,-0.00867967,0.00410905,0.63808514,-85.54424,37.490994)"
       gradientUnits="userSpaceOnUse" />
    <radialGradient
       inkscape:collect="always"
       xlink:href="#linearGradient872"
       id="radialGradient874"
       cx="72.245705"
       cy="70.645699"
       fx="72.245705"
       fy="70.645699"
       r="4.3542986"
       gradientUnits="userSpaceOnUse"
       gradientTransform="translate(-43.697077,13.545417)" />
    <radialGradient
       gradientTransform="translate(-50.710329,6.1815893)"
       inkscape:collect="always"
       xlink:href="#linearGradient872"
       id="radialGradient874-7"
       cx="72.245705"
       cy="70.645699"
       fx="72.245705"
       fy="70.645699"
       r="4.3542986"
       gradientUnits="userSpaceOnUse" />
    <radialGradient
       gradientTransform="translate(-36.675679,6.4158973)"
       inkscape:collect="always"
       xlink:href="#linearGradient872"
       id="radialGradient874-7-6"
       cx="72.245705"
       cy="70.645699"
       fx="72.245705"
       fy="70.645699"
       r="4.3542986"
       gradientUnits="userSpaceOnUse" />
    <radialGradient
       gradientTransform="translate(-43.655074,-0.73184172)"
       inkscape:collect="always"
       xlink:href="#linearGradient872"
       id="radialGradient874-7-6-2"
       cx="72.245705"
       cy="70.645699"
       fx="72.245705"
       fy="70.645699"
       r="4.3542986"
       gradientUnits="userSpaceOnUse" />
    <radialGradient
       inkscape:collect="always"
       xlink:href="#linearGradient844"
       id="radialGradient4744"
       gradientUnits="userSpaceOnUse"
       gradientTransform="matrix(1.8291212,-0.00867967,0.00410905,0.63808514,-85.54424,37.490994)"
       cx="50.083115"
       cy="62.516811"
       fx="50.083115"
       fy="62.516811"
       r="45.017044" />
  </defs>
  <sodipodi:namedview
     id="base"
     pagecolor="#ffffff"
     bordercolor="#666666"
     borderopacity="1.0"
     inkscape:pageopacity="0.0"
     inkscape:pageshadow="2"
     inkscape:zoom="3.959798"
     inkscape:cx="98.408481"
     inkscape:cy="19.906092"
     inkscape:document-units="px"
     inkscape:current-layer="SvgjsG1007"
     showgrid="false"
     inkscape:window-width="1920"
     inkscape:window-height="1026"
     inkscape:window-x="0"
     inkscape:window-y="0"
     inkscape:window-maximized="1"
     units="px"
     width="56px" />
  <metadata
     id="metadata5">
    <rdf:RDF>
      <cc:Work
         rdf:about="">
        <dc:format>image/svg+xml</dc:format>
        <dc:type
           rdf:resource="http://purl.org/dc/dcmitype/StillImage" />
        <dc:title></dc:title>
      </cc:Work>
    </rdf:RDF>
  </metadata>
  <g
     inkscape:label="Layer 1"
     inkscape:groupmode="layer"
     id="layer1"
     transform="translate(0,-282.18333)">
    <g
       id="g3824"
       transform="matrix(0.26458333,0,0,0.26458333,78.619046,112.15488)">
      <g
         transform="matrix(6.6577437,0,0,7.7558222,-232.93351,-351.59721)"
         featurekey="symbolFeature-0"
         id="SvgjsG1007"
         style="fill:#a5e9e1">
        <title
           id="title3782">ALL</title>
        <g
           id="g4742"
           transform="matrix(0.08024861,0,0,0.08024861,-5.903187,126.62457)">
          <path
             sodipodi:nodetypes="ccscccccccccccc"
             inkscape:connector-curvature="0"
             d="m -24.847087,107.23542 c -1.66783,-2.5e-4 -3.3181,-0.34051 -4.85,-1 -9.46,-4 -11.85,-19.769998 -5.31,-35.069998 6.54,-15.3 19.54,-24.460006 29.0000111,-20.43 2.18362,0.95446 4.05236,2.5077 5.38999003,4.48 2.29611997,0.2734 4.60789997,0.39366 6.91999987,0.36 2.3408201,0.0476 4.68167,-0.0929 7.00001,-0.42 1.33524,-1.94434 3.18865,-3.47558 5.34999,-4.42 9.46,-4.000006 22.470011,5.13 29.000011,20.43 v 0 c 6.53,15.3 4.15,30.999998 -5.31,35.069998 -7.64001,3.25999 -17.890011,-2.08 -25.000011,-12.999998 -3.59425,-0.9824 -7.31608,-1.41729 -11.04,-1.29 -3.8737599,-0.0807 -7.7279299,0.5707 -11.3599999,1.92 -5.7400001,8.479998 -13.1800011,13.369998 -19.7900011,13.369998 z"
             id="path3784-3"
             style="fill:url(#radialGradient4744);fill-opacity:1;stroke-width:1" />
          <path
             style="fill:#1a1a1a;fill-opacity:1"
             inkscape:connector-curvature="0"
             d="m -24.847077,107.23542 a 12.27,12.27 0 0 1 -4.85,-1 c -9.46,-4 -11.85,-19.769998 -5.31,-35.069998 6.54,-15.3 19.54,-24.460005 29.0000011,-20.43 a 12.62,12.62 0 0 1 5.39000003,4.48 52.110001,52.110001 0 0 0 6.91999987,0.36 43.740001,43.740001 0 0 0 7,-0.42 12.62,12.62 0 0 1 5.35,-4.42 c 9.46,-4.000005 22.470001,5.13 29.000001,20.43 v 0 c 6.53,15.3 4.15,30.999998 -5.31,35.069998 -7.64,3.26 -17.890001,-2.08 -25.000001,-12.999998 a 37.070001,37.070001 0 0 0 -11.04,-1.29 30.780001,30.780001 0 0 0 -11.3599999,1.92 C -10.797076,102.34542 -18.237077,107.23542 -24.847077,107.23542 Z M 6.302924,89.985422 a 38.130001,38.130001 0 0 1 11.91,1.56 1,1 0 0 1 0.52,0.4 c 6.620001,10.289998 16.000001,15.449998 22.810001,12.539998 8.47,-3.62 10.39,-18.199998 4.28,-32.499998 v 0 c -6.11,-14.31 -18.000001,-23.000005 -26.430001,-19.39 a 10.81,10.81 0 0 0 -4.73,4.06 1,1 0 0 1 -0.64,0.42 43.260001,43.260001 0 0 1 -7.72,0.47 51.550001,51.550001 0 0 1 -7.6399999,-0.45 1,1 0 0 1 -0.67,-0.43 10.82,10.82 0 0 0 -4.77,-4.12 c -8.4700011,-3.600005 -20.3300011,5.1 -26.4300011,19.41 -6.1,14.31 -4.19,28.889998 4.28,32.499998 6.62,2.83 15.84,-2.08 22.4100011,-11.909998 a 1,1 0 0 1 0.44,-0.36 32.390001,32.390001 0 0 1 12.3799999,-2.2 z"
             id="path3784" />
          <path
             sodipodi:nodetypes="cscc"
             style="fill:url(#radialGradient874);fill-opacity:1"
             inkscape:connector-curvature="0"
             d="m 28.552924,88.545422 c -3.875706,0 -5.815964,-4.68556 -3.075757,-7.42576 2.740204,-2.74021 7.425758,-0.79995 7.425758,3.07576 -0.0055,2.40015 -1.949844,4.3445 -4.350001,4.35 z"
             id="path3790" />
          <path
             style="fill:#000080;fill-opacity:1"
             inkscape:connector-curvature="0"
             d="m 6.302924,57.545422 a 1,1 0 0 1 -0.9999999,-1 c 0,-14.380005 7.3499999,-23.680005 18.7299999,-23.680005 h 3.6 c 4,0 13.410001,-1.17 13.410001,-12.06 a 1,1 0 0 1 2,0 c 0,8.78 -5.74,14 -15.360001,14 h -3.6 c -10.22,0.05 -16.78,8.58 -16.78,21.740005 a 1,1 0 0 1 -1,1 z"
             id="path3796" />
          <path
             sodipodi:nodetypes="csscsssscsssscssssccc"
             style="fill:#333333;fill-opacity:1;stroke-width:1"
             inkscape:connector-curvature="0"
             d="m -12.197076,84.975422 h -5.700001 c -0.55228,0 -1,-0.44772 -1,-1 v -4.69 h -4.69 c -0.55228,0 -1,-0.44772 -1,-1 v -5.68 c 0,-0.55229 0.44772,-1 1,-1 h 4.71 v -4.69 c 0,-0.55229 0.44772,-1 1,-1 h 5.680001 c 0.55228,0 1,0.44771 1,1 v 4.71 h 4.7200001 c 0.55228,0 1,0.44771 1,1 v 5.69 c 0,0.55228 -0.44772,1 -1,1 h -4.7500001 v 4.71 c -0.0259,0.52127 -0.4483,0.93498 -0.97,0.95 z"
             id="path3786-6" />
          <path
             sodipodi:nodetypes="cscc"
             style="fill:url(#radialGradient874-7);fill-opacity:1;stroke-width:1"
             inkscape:connector-curvature="0"
             d="m 21.539674,81.181592 c -3.875706,0 -5.815965,-4.68555 -3.075758,-7.42576 2.740205,-2.7402 7.425758,-0.79995 7.425758,3.07576 -0.0055,2.40016 -1.949843,4.3445 -4.35,4.35 z"
             id="path3790-5" />
          <path
             sodipodi:nodetypes="cscc"
             style="fill:url(#radialGradient874-7-6);fill-opacity:1;stroke-width:1"
             inkscape:connector-curvature="0"
             d="m 35.574326,81.415902 c -3.875707,0 -5.815965,-4.68555 -3.075758,-7.42576 2.740205,-2.74021 7.425758,-0.79995 7.425758,3.07576 -0.0055,2.40016 -1.949843,4.3445 -4.35,4.35 z"
             id="path3790-5-1" />
          <path
             sodipodi:nodetypes="cscc"
             style="fill:url(#radialGradient874-7-6-2);fill-opacity:1;stroke-width:1"
             inkscape:connector-curvature="0"
             d="m 28.594931,74.268162 c -3.875706,0 -5.815965,-4.68555 -3.075757,-7.42576 2.740204,-2.7402 7.425758,-0.79994 7.425758,3.07576 -0.0055,2.40016 -1.949844,4.3445 -4.350001,4.35 z"
             id="path3790-5-1-9" />
        </g>
      </g>
    </g>
  </g>
</svg>
