<?xml version="1.0" encoding="UTF-8" standalone="no"?>
<!-- Created with Inkscape (http://www.inkscape.org/) -->

<svg
   xmlns:dc="http://purl.org/dc/elements/1.1/"
   xmlns:cc="http://creativecommons.org/ns#"
   xmlns:rdf="http://www.w3.org/1999/02/22-rdf-syntax-ns#"
   xmlns:svg="http://www.w3.org/2000/svg"
   xmlns="http://www.w3.org/2000/svg"
   xmlns:sodipodi="http://sodipodi.sourceforge.net/DTD/sodipodi-0.dtd"
   xmlns:inkscape="http://www.inkscape.org/namespaces/inkscape"
   width="210mm"
   height="297mm"
   viewBox="0 0 210 297"
   version="1.1"
   id="svg8"
   sodipodi:docname="only_icon.svg"
   inkscape:version="0.92.4 (5da689c313, 2019-01-14)">
  <defs
     id="defs2" />
  <sodipodi:namedview
     id="base"
     pagecolor="#ffffff"
     bordercolor="#666666"
     borderopacity="1.0"
     inkscape:pageopacity="0.0"
     inkscape:pageshadow="2"
     inkscape:zoom="0.49497475"
     inkscape:cx="1103.3597"
     inkscape:cy="579.05455"
     inkscape:document-units="mm"
     inkscape:current-layer="g3824"
     showgrid="false"
     inkscape:window-width="1530"
     inkscape:window-height="836"
     inkscape:window-x="70"
     inkscape:window-y="27"
     inkscape:window-maximized="1" />
  <metadata
     id="metadata5">
    <rdf:RDF>
      <cc:Work
         rdf:about="">
        <dc:format>image/svg+xml</dc:format>
        <dc:type
           rdf:resource="http://purl.org/dc/dcmitype/StillImage" />
      </cc:Work>
    </rdf:RDF>
  </metadata>
  <g
     inkscape:label="Layer 1"
     inkscape:groupmode="layer"
     id="layer1">
    <g
       id="g3824"
       transform="matrix(0.26458333,0,0,0.26458333,78.619046,112.15488)">
      <g
         transform="matrix(6.6577437,0,0,7.7558222,-232.93351,-351.59721)"
         featurekey="symbolFeature-0"
         id="SvgjsG1007"
         style="fill:#a5e9e1">
        <title
           id="title3782">ALL</title>
        <path
           id="path3784"
           d="M 18.85,93.69 A 12.27,12.27 0 0 1 14,92.69 C 4.54,88.69 2.15,72.92 8.69,57.62 c 6.54,-15.3 19.54,-24.46 29,-20.43 a 12.62,12.62 0 0 1 5.39,4.48 52.11,52.11 0 0 0 6.92,0.36 43.74,43.74 0 0 0 7,-0.42 12.62,12.62 0 0 1 5.35,-4.42 c 9.46,-4 22.47,5.13 29,20.43 v 0 c 6.53,15.3 4.15,31 -5.31,35.07 -7.64,3.26 -17.89,-2.08 -25,-13 A 37.07,37.07 0 0 0 50,78.4 30.78,30.78 0 0 0 38.64,80.32 C 32.9,88.8 25.46,93.69 18.85,93.69 Z M 50,76.44 a 38.13,38.13 0 0 1 11.91,1.56 1,1 0 0 1 0.52,0.4 c 6.62,10.29 16,15.45 22.81,12.54 8.47,-3.62 10.39,-18.2 4.28,-32.5 v 0 c -6.11,-14.31 -18,-23 -26.43,-19.39 A 10.81,10.81 0 0 0 58.36,43.11 1,1 0 0 1 57.72,43.53 43.26,43.26 0 0 1 50,44 51.55,51.55 0 0 1 42.36,43.55 1,1 0 0 1 41.69,43.12 10.82,10.82 0 0 0 36.92,39 C 28.45,35.4 16.59,44.1 10.49,58.41 4.39,72.72 6.3,87.3 14.77,90.91 21.39,93.74 30.61,88.83 37.18,79 A 1,1 0 0 1 37.62,78.64 32.39,32.39 0 0 1 50,76.44 Z"
           inkscape:connector-curvature="0" />
        <path
           id="path3786"
           d="m 31.5,71.43 h -5.7 a 1,1 0 0 1 -1,-1 v -4.69 h -4.69 a 1,1 0 0 1 -1,-1 v -5.68 a 1,1 0 0 1 1,-1 h 4.71 v -4.69 a 1,1 0 0 1 1,-1 h 5.68 a 1,1 0 0 1 1,1 v 4.71 h 4.72 a 1,1 0 0 1 1,1 v 5.69 a 1,1 0 0 1 -1,1 h -4.75 v 4.71 a 1,1 0 0 1 -0.97,0.95 z m -4.71,-2 h 3.73 v -4.67 a 1,1 0 0 1 1,-1 h 4.72 V 60 H 31.5 a 1,1 0 0 1 -1,-1 v -4.65 h -3.72 v 4.71 a 1,1 0 0 1 -1,1 h -4.69 v 3.74 h 4.71 a 1,1 0 0 1 1,1 z"
           inkscape:connector-curvature="0" />
        <path
           id="path3788"
           d="m 72.25,60.64 a 4.35,4.35 0 1 1 4.35,-4.35 4.35,4.35 0 0 1 -4.35,4.35 z m 0,-6.74 a 2.39,2.39 0 1 0 2.39,2.39 2.39,2.39 0 0 0 -2.39,-2.39 z"
           inkscape:connector-curvature="0" />
        <path
           id="path3790"
           d="M 72.25,75 A 4.35,4.35 0 1 1 76.6,70.65 4.36,4.36 0 0 1 72.25,75 Z m 0,-6.74 a 2.39,2.39 0 1 0 2.39,2.39 2.39,2.39 0 0 0 -2.39,-2.37 z"
           inkscape:connector-curvature="0" />
        <path
           id="path3792"
           d="m 65.06,67.84 a 4.35,4.35 0 1 1 4.35,-4.35 4.36,4.36 0 0 1 -4.35,4.35 z m 0,-6.74 a 2.39,2.39 0 1 0 2.39,2.39 2.39,2.39 0 0 0 -2.39,-2.4 z"
           inkscape:connector-curvature="0" />
        <path
           id="path3794"
           d="m 79.44,67.84 a 4.35,4.35 0 1 1 4.35,-4.35 4.36,4.36 0 0 1 -4.35,4.35 z m 0,-6.74 a 2.39,2.39 0 1 0 2.39,2.39 2.39,2.39 0 0 0 -2.39,-2.4 z"
           inkscape:connector-curvature="0" />
        <path
           id="path3796"
           d="M 50,44 A 1,1 0 0 1 49,43 C 49,28.62 56.35,19.32 67.73,19.32 h 3.6 c 4,0 13.41,-1.17 13.41,-12.06 a 1,1 0 0 1 2,0 c 0,8.78 -5.74,14 -15.36,14 h -3.6 C 57.56,21.31 51,29.84 51,43 a 1,1 0 0 1 -1,1 z"
           inkscape:connector-curvature="0" />
      </g>
    </g>
  </g>
</svg>
