<?xml version="1.0" encoding="UTF-8" standalone="no"?>
<svg
   xmlns:dc="http://purl.org/dc/elements/1.1/"
   xmlns:cc="http://creativecommons.org/ns#"
   xmlns:rdf="http://www.w3.org/1999/02/22-rdf-syntax-ns#"
   xmlns:svg="http://www.w3.org/2000/svg"
   xmlns="http://www.w3.org/2000/svg"
   xmlns:sodipodi="http://sodipodi.sourceforge.net/DTD/sodipodi-0.dtd"
   xmlns:inkscape="http://www.inkscape.org/namespaces/inkscape"
   width="600"
   height="300"
   viewBox="0 0 600 300.00002"
   class="css-1j8o68f"
   version="1.1"
   id="svg26"
   sodipodi:docname="icon.svg"
   inkscape:version="0.92.3 (2405546, 2018-03-11)"
   inkscape:export-filename="/home/user/Bureaublad/the_hills_js/Cordova/games/www/img/browser/splashscreen.png"
   inkscape:export-xdpi="187.52"
   inkscape:export-ydpi="187.52">
  <metadata
     id="metadata30">
    <rdf:RDF>
      <cc:Work
         rdf:about="">
        <dc:format>image/svg+xml</dc:format>
        <dc:type
           rdf:resource="http://purl.org/dc/dcmitype/StillImage" />
        <dc:title />
      </cc:Work>
    </rdf:RDF>
  </metadata>
  <sodipodi:namedview
     pagecolor="#ffffff"
     bordercolor="#666666"
     borderopacity="1"
     objecttolerance="10"
     gridtolerance="10"
     guidetolerance="10"
     inkscape:pageopacity="0"
     inkscape:pageshadow="2"
     inkscape:window-width="1586"
     inkscape:window-height="720"
     id="namedview28"
     showgrid="false"
     inkscape:pagecheckerboard="true"
     inkscape:zoom="0.72406533"
     inkscape:cx="-112.72685"
     inkscape:cy="72.227015"
     inkscape:window-x="0"
     inkscape:window-y="0"
     inkscape:window-maximized="0"
     inkscape:current-layer="svg26" />
  <defs
     id="SvgjsDefs1001" />
  <g
     id="g853"
     transform="translate(200,-68.515643)">
    <g
       style="fill:#a5e9e1"
       transform="matrix(0.82351595,0,0,0.82351595,58.881787,131.87607)"
       featurekey="symbolFeature-0"
       id="SvgjsG1007">
      <title
         id="title3">ALL</title>
      <path
         inkscape:connector-curvature="0"
         id="path5"
         d="M 18.85,93.69 A 12.27,12.27 0 0 1 14,92.69 C 4.54,88.69 2.15,72.92 8.69,57.62 c 6.54,-15.3 19.54,-24.46 29,-20.43 a 12.62,12.62 0 0 1 5.39,4.48 52.11,52.11 0 0 0 6.92,0.36 43.74,43.74 0 0 0 7,-0.42 12.62,12.62 0 0 1 5.35,-4.42 c 9.46,-4 22.47,5.13 29,20.43 v 0 c 6.53,15.3 4.15,31 -5.31,35.07 -7.64,3.26 -17.89,-2.08 -25,-13 A 37.07,37.07 0 0 0 50,78.4 30.78,30.78 0 0 0 38.64,80.32 C 32.9,88.8 25.46,93.69 18.85,93.69 Z M 50,76.44 a 38.13,38.13 0 0 1 11.91,1.56 1,1 0 0 1 0.52,0.4 c 6.62,10.29 16,15.45 22.81,12.54 8.47,-3.62 10.39,-18.2 4.28,-32.5 v 0 c -6.11,-14.31 -18,-23 -26.43,-19.39 A 10.81,10.81 0 0 0 58.36,43.11 1,1 0 0 1 57.72,43.53 43.26,43.26 0 0 1 50,44 51.55,51.55 0 0 1 42.36,43.55 1,1 0 0 1 41.69,43.12 10.82,10.82 0 0 0 36.92,39 C 28.45,35.4 16.59,44.1 10.49,58.41 4.39,72.72 6.3,87.3 14.77,90.91 21.39,93.74 30.61,88.83 37.18,79 A 1,1 0 0 1 37.62,78.64 32.39,32.39 0 0 1 50,76.44 Z" />
      <path
         inkscape:connector-curvature="0"
         id="path7"
         d="m 31.5,71.43 h -5.7 a 1,1 0 0 1 -1,-1 v -4.69 h -4.69 a 1,1 0 0 1 -1,-1 v -5.68 a 1,1 0 0 1 1,-1 h 4.71 v -4.69 a 1,1 0 0 1 1,-1 h 5.68 a 1,1 0 0 1 1,1 v 4.71 h 4.72 a 1,1 0 0 1 1,1 v 5.69 a 1,1 0 0 1 -1,1 h -4.75 v 4.71 a 1,1 0 0 1 -0.97,0.95 z m -4.71,-2 h 3.73 v -4.67 a 1,1 0 0 1 1,-1 h 4.72 V 60 H 31.5 a 1,1 0 0 1 -1,-1 v -4.65 h -3.72 v 4.71 a 1,1 0 0 1 -1,1 h -4.69 v 3.74 h 4.71 a 1,1 0 0 1 1,1 z" />
      <path
         inkscape:connector-curvature="0"
         id="path9"
         d="m 72.25,60.64 a 4.35,4.35 0 1 1 4.35,-4.35 4.35,4.35 0 0 1 -4.35,4.35 z m 0,-6.74 a 2.39,2.39 0 1 0 2.39,2.39 2.39,2.39 0 0 0 -2.39,-2.39 z" />
      <path
         inkscape:connector-curvature="0"
         id="path11"
         d="M 72.25,75 A 4.35,4.35 0 1 1 76.6,70.65 4.36,4.36 0 0 1 72.25,75 Z m 0,-6.74 a 2.39,2.39 0 1 0 2.39,2.39 2.39,2.39 0 0 0 -2.39,-2.37 z" />
      <path
         inkscape:connector-curvature="0"
         id="path13"
         d="m 65.06,67.84 a 4.35,4.35 0 1 1 4.35,-4.35 4.36,4.36 0 0 1 -4.35,4.35 z m 0,-6.74 a 2.39,2.39 0 1 0 2.39,2.39 2.39,2.39 0 0 0 -2.39,-2.4 z" />
      <path
         inkscape:connector-curvature="0"
         id="path15"
         d="m 79.44,67.84 a 4.35,4.35 0 1 1 4.35,-4.35 4.36,4.36 0 0 1 -4.35,4.35 z m 0,-6.74 a 2.39,2.39 0 1 0 2.39,2.39 2.39,2.39 0 0 0 -2.39,-2.4 z" />
      <path
         inkscape:connector-curvature="0"
         id="path17"
         d="M 50,44 A 1,1 0 0 1 49,43 C 49,28.62 56.35,19.32 67.73,19.32 h 3.6 c 4,0 13.41,-1.17 13.41,-12.06 a 1,1 0 0 1 2,0 c 0,8.78 -5.74,14 -15.36,14 h -3.6 C 57.56,21.31 51,29.84 51,43 a 1,1 0 0 1 -1,1 z" />
    </g>
    <g
       style="fill:#ffffff"
       transform="matrix(1.3454219,0,0,1.3454219,-1.7342496,214.39493)"
       featurekey="nameFeature-0"
       id="SvgjsG1008">
      <path
         inkscape:connector-curvature="0"
         id="path20"
         d="m 15.762,40.39063 c -8.4375,0 -14.473,-5.8789 -14.473,-14.668 0,-8.9648 6.2305,-14.844 14.902,-14.844 5.7617,0 10.41,2.5586 12.93,6.7969 l -6.5234,3.4766 c -1.2695,-2.6367 -3.5547,-3.9063 -6.4063,-3.9063 -4.3164,0 -7.4805,2.9883 -7.4805,8.2813 0,4.9609 2.8125,8.5156 7.7734,8.5156 2.7539,0 5.8008,-1.1133 6.7188,-4.3555 h -6.6797 v -5.8789 h 13.633 v 16.191 h -5.7617 v -3.0859 c -1.7969,2.1289 -4.5508,3.4766 -8.6328,3.4766 z M 55.176094,40 l -1.8555,-5.3125 h -11.484 L 40.000694,40 h -7.5586 l 10.566,-28.711 h 9.1602 L 62.734294,40 h -7.5586 z m -11.211,-11.445 h 7.2266 l -3.6133,-10.391 z M 100.64469,40 H 93.203288 L 91.328288,19.766 85.254087,40 H 80.332188 L 74.257987,19.668 72.363488,40 h -7.480501 l 2.5195,-28.711 h 10.879 l 4.4922,14.668 4.5508,-14.668 h 10.84 z m 22.6175,-22.246 h -10 v 4.6875 h 8.9063 v 6.4063 h -8.9063 v 4.6289 h 10 v 6.5234 h -17.441 v -28.711 h 17.441 v 6.4648 z m 15.56587,22.63663 c -6.2891,0 -11.406,-3.0273 -12.207,-8.7891 l 7.7148,-1.7578 c 0.21484,3.125 2.168,4.5898 4.8047,4.5898 1.9141,0 3.0859,-0.91797 3.0859,-2.5586 0,-2.1484 -2.7539,-2.9492 -5.957,-4.043 -4.043,-1.3477 -8.5742,-3.0273 -8.5742,-8.3203 0,-5.3516 4.3359,-8.6328 10.527,-8.6328 5.0391,0 10.527,1.9922 11.719,7.9297 l -7.1484,1.7578 c -0.41016,-2.5977 -1.7773,-3.7305 -4.082,-3.7305 -2.0508,0 -3.4961,0.80078 -3.4961,2.4805 0,1.6016 2.5781,2.2461 5.5273,3.2031 4.1211,1.3672 9.1992,3.2422 9.1992,8.9258 0,6.3086 -5.3125,8.9453 -11.113,8.9453 z" />
    </g>
    <g
       style="fill:#a5e9e1"
       transform="matrix(1.1071131,0,0,1.1071131,19.11431,277.72489)"
       featurekey="sloganFeature-0"
       id="SvgjsG1009">
      <path
         inkscape:connector-curvature="0"
         id="path23"
         d="M 1.56,20 H 0.8 L 2.32,1.32 h 1.3 L 5.14,20 H 4.38 L 3.96,14.8 c -0.18,0.26 -0.44,0.6 -0.76,1.08 -0.76,1.1 -1.46,1.9 -1.58,3.5 z m 0.28,-3.44 c 0.26,-0.42 0.6,-0.9 1,-1.46 1,-1.44 0.92,-1.34 0.92,-2.58 0,-0.14 -0.7,-8.8 -0.76,-9.7 H 2.96 Z M 15.9,14.6 v 3.44 c 0,1.22 -0.5,2.08 -2.04,2.08 h -0.28 c -1.5,0 -2.02,-0.86 -2.02,-2.08 v -4.88 h 0.76 v 4.56 c 0,0.88 0.2,1.64 1.42,1.64 1.2,0 1.4,-0.76 1.4,-1.64 V 14.4 C 15.14,13.1 14.26,12 13.5,10.9 12.22,9.04 11.56,8.32 11.56,6.38 V 3.26 c 0,-1.22 0.5,-2.08 2.02,-2.08 h 0.28 c 1.52,0 2.04,0.86 2.04,2.08 v 4.92 h -0.76 v -4.6 c 0,-0.88 -0.22,-1.64 -1.42,-1.64 -1.2,0 -1.4,0.76 -1.4,1.64 v 3 c -0.02,1.26 0.54,2.1 1.54,3.54 1.36,1.96 2.04,2.68 2.04,4.48 z M 25.36,20 H 24.6 V 2.84 H 24.5 L 21.84,20 H 21.02 L 18.36,2.84 h -0.1 V 20 H 17.5 V 1.32 h 1.4 l 2.52,16.4 2.54,-16.4 h 1.4 z m 2.16,0 H 26.76 L 28.28,1.32 h 1.3 L 31.1,20 h -0.76 l -0.42,-5.2 c -0.18,0.26 -0.44,0.6 -0.76,1.08 -0.76,1.1 -1.46,1.9 -1.58,3.5 z m 0.28,-3.44 c 0.26,-0.42 0.6,-0.9 1,-1.46 1,-1.44 0.92,-1.34 0.92,-2.58 0,-0.14 -0.7,-8.8 -0.76,-9.7 h -0.04 z m 5.58,2.68 V 1.32 H 32.62 V 20 h 2.68 v -0.76 z m 4.18,0 V 1.32 H 36.8 V 20 h 2.68 v -0.76 z m 11.9,-6.14 h 0.74 v 4.94 c 0,1.22 -0.48,2.08 -2.02,2.08 H 47.9 c -1.5,0 -2.02,-0.86 -2.02,-2.28 V 3.06 c 0,-1.02 0.5,-1.88 2.02,-1.88 h 0.28 c 1.52,0 2.02,0.86 2.02,2.08 v 4.92 h -0.74 v -4.6 c 0,-0.88 -0.22,-1.64 -1.42,-1.64 -1.2,0 -1.4,0.74 -1.4,1.64 v 14.14 c 0,0.88 0.2,1.64 1.4,1.64 1.22,0 1.42,-0.76 1.42,-1.64 z m 6.68,-9.84 v 14.78 c 0,1.22 -0.5,2.08 -2.04,2.08 h -0.28 c -1.5,0 -2.02,-0.86 -2.02,-2.28 V 3.06 c 0,-1.02 0.5,-1.88 2.04,-1.88 h 0.26 c 1.52,0 2.04,0.86 2.04,2.08 z M 55.38,17.72 V 3.58 c 0,-0.88 -0.2,-1.64 -1.42,-1.64 -1.2,0 -1.4,0.76 -1.4,1.64 v 14.14 c 0,0.88 0.2,1.64 1.42,1.64 1.2,0 1.4,-0.76 1.4,-1.64 z m 3.12,1.52 V 1.32 H 57.74 V 20 h 2.68 v -0.76 z m 4.18,0 V 1.32 H 61.92 V 20 h 2.68 v -0.76 z m 6.08,-8.2 h -1.92 v 8.2 h 1.92 V 20 H 66.1 V 1.32 h 2.66 v 0.76 h -1.92 v 8.2 h 1.92 z m 5.04,2.06 h 0.74 v 4.94 c 0,1.22 -0.48,2.08 -2.02,2.08 h -0.28 c -1.5,0 -2.02,-0.86 -2.02,-2.28 V 3.06 c 0,-1.02 0.5,-1.88 2.02,-1.88 h 0.28 c 1.52,0 2.02,0.86 2.02,2.08 V 8.18 H 73.8 v -4.6 c 0,-0.88 -0.22,-1.64 -1.42,-1.64 -1.2,0 -1.4,0.74 -1.4,1.64 v 14.14 c 0,0.88 0.2,1.64 1.4,1.64 1.22,0 1.42,-0.76 1.42,-1.64 z M 80.02,1.32 V 2.08 H 78.1 V 20 H 77.34 V 2.08 h -1.9 V 1.32 Z M 82.36,20 H 81.62 V 1.32 h 0.74 z M 88.3,3.26 v 14.78 c 0,1.22 -0.5,2.08 -2.04,2.08 h -0.28 c -1.5,0 -2.02,-0.86 -2.02,-2.28 V 3.06 c 0,-1.02 0.5,-1.88 2.04,-1.88 h 0.26 c 1.52,0 2.04,0.86 2.04,2.08 z M 87.54,17.72 V 3.58 c 0,-0.88 -0.2,-1.64 -1.42,-1.64 -1.2,0 -1.4,0.76 -1.4,1.64 v 14.14 c 0,0.88 0.2,1.64 1.42,1.64 1.2,0 1.4,-0.76 1.4,-1.64 z m 5.94,-16.4 h 0.76 V 20 H 93.42 L 90.66,4.7 V 20 H 89.9 V 1.32 h 0.82 l 2.76,15.3 z m 11.5,1.94 v 14.78 c 0,1.22 -0.5,2.08 -2.04,2.08 h -0.28 c -1.5,0 -2.02,-0.86 -2.02,-2.28 V 3.06 c 0,-1.02 0.5,-1.88 2.04,-1.88 h 0.26 c 1.52,0 2.04,0.86 2.04,2.08 z m -0.76,14.46 V 3.58 c 0,-0.88 -0.2,-1.64 -1.42,-1.64 -1.2,0 -1.4,0.76 -1.4,1.64 v 14.14 c 0,0.88 0.2,1.64 1.42,1.64 1.2,0 1.4,-0.76 1.4,-1.64 z m 5.02,-6.68 h -1.92 V 20 h -0.76 V 1.32 h 2.68 v 0.76 h -1.92 v 8.2 h 1.92 z m 8.54,2.08 h 2.16 v 4.92 c 0,1.22 -0.5,2.08 -2.02,2.08 h -0.28 c -1.52,0 -2.04,-0.86 -2.04,-2.28 V 3.06 c 0,-1.02 0.5,-1.88 2.04,-1.88 h 0.28 c 1.5,0 2.02,0.86 2.02,2.08 v 4.92 h -0.76 v -4.6 c 0,-0.88 -0.2,-1.64 -1.42,-1.64 -1.2,0 -1.4,0.76 -1.4,1.64 v 14.14 c 0,0.88 0.22,1.64 1.42,1.64 1.2,0 1.4,-0.76 1.4,-1.64 v -3.86 h -1.4 z M 122.3,20 h -0.76 l 1.52,-18.68 h 1.3 L 125.88,20 h -0.76 l -0.42,-5.2 c -0.18,0.26 -0.44,0.6 -0.76,1.08 -0.76,1.1 -1.46,1.9 -1.58,3.5 z m 0.28,-3.44 c 0.26,-0.42 0.6,-0.9 1,-1.46 1,-1.44 0.92,-1.34 0.92,-2.58 0,-0.14 -0.7,-8.8 -0.76,-9.7 H 123.7 Z M 135.36,20 H 134.6 V 2.84 h -0.1 L 131.84,20 h -0.82 L 128.36,2.84 h -0.1 V 20 H 127.5 V 1.32 h 1.4 l 2.52,16.4 2.54,-16.4 h 1.4 z m 4.26,-8.96 h -1.92 v 8.2 h 1.92 V 20 h -2.66 V 1.32 h 2.66 v 0.76 h -1.92 v 8.2 h 1.92 z m 5.7,3.56 v 3.44 c 0,1.22 -0.5,2.08 -2.04,2.08 H 143 c -1.5,0 -2.02,-0.86 -2.02,-2.08 v -4.88 h 0.76 v 4.56 c 0,0.88 0.2,1.64 1.42,1.64 1.2,0 1.4,-0.76 1.4,-1.64 V 14.4 c 0,-1.3 -0.88,-2.4 -1.64,-3.5 -1.28,-1.86 -1.94,-2.58 -1.94,-4.52 V 3.26 c 0,-1.22 0.5,-2.08 2.02,-2.08 h 0.28 c 1.52,0 2.04,0.86 2.04,2.08 v 4.92 h -0.76 v -4.6 c 0,-0.88 -0.22,-1.64 -1.42,-1.64 -1.2,0 -1.4,0.76 -1.4,1.64 v 3 c -0.02,1.26 0.54,2.1 1.54,3.54 1.36,1.96 2.04,2.68 2.04,4.48 z" />
    </g>
  </g>
</svg>
